<svg width="253.999" height="127.075" viewBox="0 0 67.204163 33.621651" xmlns="http://www.w3.org/2000/svg"><path d="M0 33.62C0 22.886 5.105 13.34 13.037 7.205l9.237 11.227c-4.947 3.881-7.537 8.47-7.537 15.188z" fill="#ffc815"/><path d="M14.786 6.04A33.189 33.189 0 0 1 33.93.001c7.145 0 13.75 2.241 19.142 6.039l-9.063 11.301c-3.856-2.604-6.905-3.204-10.08-3.204-3.165 0-6.875 1.144-10.07 3.204z" fill="#a3cd3b"/><path d="M54.442 7.01c7.778 6.181 12.765 15.8 12.765 26.614h-14.42c0-6.77-2.777-11.591-7.342-15.303z" fill="#0093d7"/></svg>