<?xml version="1.0" encoding="UTF-8"?>
<!DOCTYPE svg PUBLIC "-//W3C//DTD SVG 1.1//EN" "http://www.w3.org/Graphics/SVG/1.1/DTD/svg11.dtd">
<svg xmlns="http://www.w3.org/2000/svg">
<symbol id="icon-arrow" viewBox="0 0 30 28.495335">
    <path d="M15.274 28.417l14.597-11.914a.35.35 0 0 0-.443-.543l-14.08 11.492V.35a.35.35 0 0 0-.7 0v27.1L.572 15.96a.35.35 0 0 0-.443.542l14.598 11.915c.063.05.14.078.221.078h.105a.348.348 0 0 0 .222-.078z"/>
</symbol>
<symbol id="icon-contacts" viewBox="0 0 30.999922 21.212032">
    <path d="M30.991.43c.007-.026.006-.052.007-.078 0-.017.004-.035.001-.053-.003-.025-.014-.048-.023-.073-.006-.017-.006-.034-.015-.05L30.956.17c-.001-.002-.001-.005-.003-.007-.007-.011-.018-.018-.026-.029-.005-.006-.005-.014-.01-.02-.004-.005-.013-.005-.018-.01-.011-.012-.02-.026-.033-.036-.017-.013-.039-.02-.059-.03-.019-.01-.037-.022-.057-.027-.023-.006-.047-.005-.071-.006-.02-.002-.04-.007-.06-.005-.012.002-.023.009-.036.012-.007.001-.014-.003-.02 0L.25 8.789a.347.347 0 0 0-.09.624l6.616 4.26 1.63 7.268a.35.35 0 0 0 .05.114l.003.006c.003.006.01.007.013.012a.332.332 0 0 0 .096.085l.034.02c.044.02.09.034.14.034h.002a.336.336 0 0 0 .179-.056c.005-.003.01-.001.016-.005l5.9-4.06c.005-.003.007-.007.011-.01l6.872 4.082a.347.347 0 0 0 .494-.162L30.976.48l.001-.016.014-.034zM10.152 13.712c-.017.011-.028.029-.043.043-.013.014-.027.024-.037.038a.34.34 0 0 0-.052.105c-.003.009-.01.014-.012.023L8.75 19.315l-1.274-5.68 16.167-8.993zM27.818 1.527L7.096 13.055 1.175 9.243zM9.283 20.074l1.29-5.534 3.625 2.153zm12.452.292l-10.743-6.384L29.88 1.283z"/>
</symbol>
</svg>