<svg width="14" height="14" viewBox="0 0 1792 1792" xmlns="http://www.w3.org/2000/svg"><path d="M1240.6 758.15q0-199.23-141.62-340.85-141.62-141.62-340.85-141.62-199.23 0-340.85 141.62-141.62 141.62-141.62 340.85T417.28 1099q141.62 141.62 340.85 141.62 199.23 0 340.85-141.62 141.62-141.62 141.62-340.85zm551.38 896q0 56-40.923 96.923t-96.923 40.923q-58.154 0-96.923-40.923l-369.38-368.31q-192.77 133.54-429.69 133.54-154 0-294.54-59.769-140.54-59.769-242.31-161.54t-161.54-242.31Q-.018 912.144-.018 758.144t59.769-294.54q59.769-140.54 161.54-242.31t242.31-161.54Q604.141-.015 758.141-.015t294.54 59.769q140.54 59.769 242.31 161.54t161.54 242.31q59.769 140.54 59.769 294.54 0 236.92-133.54 429.69l369.38 369.38q39.846 39.846 39.846 96.923z" fill="gray"/></svg>